<?xml version="1.0" standalone="no"?>
<!DOCTYPE svg PUBLIC "-//W3C//DTD SVG 20010904//EN"
 "http://www.w3.org/TR/2001/REC-SVG-20010904/DTD/svg10.dtd">
<svg version="1.0" xmlns="http://www.w3.org/2000/svg"
 width="512.000000pt" height="512.000000pt" viewBox="0 0 512.000000 512.000000"
 preserveAspectRatio="xMidYMid meet">
<metadata>
Created by potrace 1.14, written by Peter Selinger 2001-2017
</metadata>
<g transform="translate(0.000000,512.000000) scale(0.100000,-0.100000)"
fill="#000000" stroke="none">
<path d="M1053 4843 c-75 -26 -118 -86 -128 -178 -3 -31 20 -95 45 -126 l29
-37 -5 -118 c-3 -66 -6 -166 -9 -224 -2 -58 -4 -113 -4 -122 -1 -13 -10 -18
-34 -18 -48 0 -98 -31 -121 -76 -19 -36 -21 -58 -22 -266 l0 -227 -53 -53
c-142 -142 -247 -324 -290 -500 -11 -47 -21 -94 -21 -102 0 -9 -15 -22 -32
-30 -18 -7 -42 -22 -54 -32 -50 -46 -49 -33 -49 -730 l1 -652 24 -36 c14 -20
42 -44 62 -54 21 -9 38 -21 39 -27 0 -5 1 -148 2 -317 l2 -306 30 -44 c19 -26
51 -54 83 -71 33 -18 58 -40 68 -60 40 -78 163 -146 299 -164 66 -9 3385 -9
3452 0 134 18 255 88 294 169 21 46 22 59 23 345 l1 298 28 14 c40 20 79 72
91 123 7 28 11 256 10 669 l0 625 -23 46 c-20 43 -45 67 -96 93 -13 7 -23 29
-31 70 -32 153 -111 319 -213 448 -75 95 -118 138 -215 219 l-81 67 -1 194
c-1 200 -10 246 -49 260 -8 4 -15 13 -15 21 0 17 -79 88 -90 81 -12 -7 -29 18
-28 40 0 17 -5 129 -16 368 -2 29 3 43 20 56 46 36 69 120 49 181 -8 26 -49
83 -99 137 -69 76 -208 74 -276 -4 -66 -75 -64 -177 5 -272 14 -18 23 -37 20
-41 -2 -4 -7 -94 -11 -201 -9 -275 -6 -254 -36 -255 -37 -1 -99 -35 -121 -66
-11 -14 -22 -49 -25 -77 -2 -28 -6 -51 -8 -51 -2 0 -34 12 -71 26 -125 47
-378 107 -543 128 -25 3 -70 9 -100 14 -71 9 -534 9 -625 -1 -122 -13 -152
-18 -280 -43 -95 -19 -202 -46 -289 -75 -49 -16 -90 -28 -90 -27 -14 40 -101
138 -138 157 l-41 20 -3 98 c-2 54 -5 152 -8 218 -3 109 -2 121 15 133 33 23
57 83 55 138 -1 44 -8 59 -58 126 -78 103 -150 133 -245 101z"/>
</g>
</svg>
